# Blender v2.76 (sub 0) OBJ File: ''
# www.blender.org
mtllib boundary.mtl
o Cube.002
v 4.478009 -2.377843 7.173004
v -4.455830 -2.377843 7.173003
v -4.455833 -2.377844 16.106844
v 4.478009 -2.377844 16.106846
v 4.478011 5.561679 7.173007
v -4.455832 5.561679 7.173005
v -4.455833 5.561679 16.106844
v 4.478006 5.561679 16.106850
vt 0.000093 0.000093
vt 0.324320 0.337750
vt 0.328446 0.714817
vt 0.999907 0.000093
vt 0.691285 0.359879
vt 0.701846 0.710136
vt 1.006501 0.988695
vt 0.010220 0.985402
vn -0.000000 1.000000 0.000000
vn 1.000000 -0.000000 0.000000
vn 0.000000 0.000000 -1.000000
usemtl Material.003
s 1
f 2/1/1 3/2/1 4/3/1
f 6/4/1 7/5/1 8/6/1
f 5/7/2 8/6/2 4/3/2
f 3/2/3 7/5/3 8/6/3
f 2/1/2 6/4/2 7/5/2
f 1/8/1 2/1/1 4/3/1
f 5/7/1 6/4/1 8/6/1
f 1/8/2 5/7/2 4/3/2
f 4/3/3 3/2/3 8/6/3
f 3/2/2 2/1/2 7/5/2
