# Blender v2.76 (sub 0) OBJ File: ''
# www.blender.org
mtllib cube.mtl
o Cube.001
v 0.502946 -1.178503 3.406556
v -0.502946 -0.238796 5.877413
v 1.321759 -0.529864 5.112080
v -0.502945 1.422518 5.245589
v 0.502946 0.482811 2.774732
v 1.321758 1.131449 4.480256
v -1.321759 0.773879 3.540064
v -1.321759 -0.887434 4.171889
vt 0.692352 0.000000
vt 0.346176 0.500000
vt 0.346176 0.000000
vt 0.000000 0.000000
vt 0.000000 0.500000
vt 0.307648 0.500000
vt 0.615295 1.000000
vt 0.307648 1.000000
vt 0.922943 1.000000
vt 0.615295 0.500000
vt 0.922943 0.500000
vt 0.692353 0.500000
vt 1.000000 0.000000
vt 1.000000 0.500000
vt 0.000000 1.000000
vn -0.000000 0.934700 -0.355500
vn -0.000000 -0.934700 0.355500
vn 0.409400 0.324300 0.852800
vn -0.912400 0.145500 0.382700
vn -0.409400 -0.324300 -0.852800
vn 0.912400 -0.145500 -0.382700
usemtl Material.001
s 1
f 1/1/1 2/2/1 3/3/1
f 4/4/2 5/2/2 6/5/2
f 7/6/3 1/7/3 5/8/3
f 5/9/4 3/10/4 6/11/4
f 3/12/5 4/13/5 6/14/5
f 8/5/6 4/8/6 2/15/6
f 8/12/1 2/2/1 1/1/1
f 7/3/2 5/2/2 4/4/2
f 8/10/3 1/7/3 7/6/3
f 1/7/4 3/10/4 5/9/4
f 2/1/5 4/13/5 3/12/5
f 7/6/6 4/8/6 8/5/6
