# Blender v2.76 (sub 0) OBJ File: ''
# www.blender.org
mtllib triangletest.mtl
o Circle
v -1.515392 2.187154 0.259052
v -2.432949 0.751901 0.259052
v -0.649366 0.687154 0.259052
v 1.757138 1.961757 -2.835538
v 0.891112 0.461757 -2.835537
v 2.623163 0.461757 -2.835537
v 1.935568 -0.179402 -2.835537
v 1.069543 -1.679402 -2.835537
v 2.801593 -1.679402 -2.835537
v -0.256570 -1.173511 -2.835537
v -1.122596 -2.673511 -2.835537
v 0.609455 -2.673511 -2.835537
v -2.193809 -0.026463 -2.835537
v -3.059834 -1.526463 -2.835537
v -1.327783 -1.526463 -2.835537
v -0.027161 3.006845 -2.835538
v -0.893187 1.506845 -2.835538
v 0.838864 1.506845 -2.835538
v -2.295769 2.446065 -2.835537
v -3.161795 0.946065 -2.835537
v -1.429744 0.946065 -2.835537
v -0.053602 3.812594 -0.279342
v -2.931796 -2.314501 -2.335978
v 2.773060 -2.249754 1.777294
vn 0.000000 0.000000 1.000000
vn -0.584900 0.002500 0.811100
vn 0.838100 -0.483900 -0.251800
usemtl None
s off
f 20//1 21//1 19//1
f 17//1 18//1 16//1
f 5//1 6//1 4//1
f 8//1 9//1 7//1
f 2//1 3//1 1//1
f 11//1 12//1 10//1
f 14//1 15//1 13//1
f 23//2 24//2 22//2
f 20//3 19//3 1//3
